<?xml version="1.0" encoding="UTF-8"?>
<svg width="24px" height="24px" viewBox="0 0 24 24" version="1.1" xmlns="http://www.w3.org/2000/svg" xmlns:xlink="http://www.w3.org/1999/xlink">
    <title>Symbols/Google@2x</title>
    <g id="🧩-Symbols" stroke="none" stroke-width="1" fill="none" fill-rule="evenodd">
        <g id="Symbols/Google" fill-rule="nonzero">
            <g id="003-google">
                <path d="M23.0938125,9.91354687 L13.3044375,9.91307812 C12.8721563,9.91307812 12.5217656,10.2634219 12.5217656,10.6957031 L12.5217656,13.8229687 C12.5217656,14.2551562 12.8721563,14.6055937 13.3043906,14.6055937 L18.8171719,14.6055937 C18.2135156,16.1722031 17.0868281,17.4841875 15.6493594,18.3178125 L18,22.3869844 C21.7707188,20.2062187 24,16.3798594 24,12.0965156 C24,11.486625 23.9550469,11.0506406 23.8651406,10.5597187 C23.7967969,10.1867344 23.4729844,9.91354687 23.0938125,9.91354687 Z" id="Path" fill="#167EE6"></path>
                <path d="M12,19.3043438 C9.30215625,19.3043438 6.94696875,17.8303125 5.68204688,15.6490781 L1.61301563,17.9944219 C3.68371875,21.5832656 7.5628125,24 12,24 C14.1767344,24 16.2306563,23.4139219 18,22.3925625 L18,22.3869844 L15.6493594,18.3177656 C14.5741406,18.9413906 13.3298906,19.3043438 12,19.3043438 Z" id="Path" fill="#12B347"></path>
                <path d="M18,22.3925625 L18,22.3869844 L15.6493594,18.3177656 C14.5741406,18.9413438 13.3299844,19.3043438 12,19.3043438 L12,24 C14.1767344,24 16.23075,23.4139219 18,22.3925625 Z" id="Path" fill="#0F993E"></path>
                <path d="M4.69565625,12 C4.69565625,10.6702031 5.0585625,9.42609375 5.68204688,8.35092188 L1.61301563,6.00557813 C0.58603125,7.76934375 0,9.8176875 0,12 C0,14.1823125 0.58603125,16.2306563 1.61301563,17.9944219 L5.68204688,15.6490781 C5.0585625,14.5739063 4.69565625,13.3297969 4.69565625,12 Z" id="Path" fill="#FFD500"></path>
                <path d="M12,4.69565625 C13.7592656,4.69565625 15.3752344,5.32078125 16.6374375,6.36060938 C16.9488281,6.61710938 17.4014063,6.59859375 17.6866406,6.31335937 L19.9024219,4.09757812 C20.2260469,3.77395312 20.2029844,3.24421875 19.8572812,2.9443125 C17.7425156,1.10967187 14.9909531,0 12,0 C7.5628125,0 3.68371875,2.41673437 1.61301563,6.00557812 L5.68204688,8.35092187 C6.94696875,6.1696875 9.30215625,4.69565625 12,4.69565625 Z" id="Path" fill="#FF4B26"></path>
                <path d="M16.6374375,6.36060938 C16.9488281,6.61710938 17.4014531,6.59859375 17.6866406,6.31335938 L19.9024219,4.09757813 C20.226,3.77395313 20.2029375,3.24421875 19.8572812,2.9443125 C17.7425156,1.109625 14.9909531,0 12,0 L12,4.69565625 C13.7592187,4.69565625 15.3752344,5.32078125 16.6374375,6.36060938 Z" id="Path" fill="#D93F21"></path>
            </g>
        </g>
    </g>
</svg>