<?xml version="1.0" encoding="UTF-8"?>
<svg width="583" height="583" viewBox="0 0 583 583" version="1.1" xmlns="http://www.w3.org/2000/svg" xmlns:xlink="http://www.w3.org/1999/xlink">
    <title>Symbols/BaleOutline</title>
    <g id="🧩-Symbols" stroke="none" stroke-width="1" fill="none" fill-rule="evenodd">
        <g id="Symbols/BaleOutline" fill-rule="nonzero">
            <g id="BaleOutline">
                <path d="M224.822 417.369C254.869 433.168 289.568 437.727 322.676 430.227C355.785 422.726 385.13 403.658 405.435 376.453C425.74 349.247 435.671 315.689 433.442 281.815C431.214 247.941 416.971 215.973 393.277 191.663C369.583 167.352 337.992 152.294 304.186 149.196C270.38 146.098 236.578 155.164 208.86 174.764C181.142 194.363 161.327 223.21 152.979 256.115C144.631 289.02 148.298 323.824 163.32 354.267" stroke="#36A23F" stroke-width="20"/>
                <path d="M70.707 329.717C79.867 381.514 107.208 428.343 147.813 461.78C188.418 495.218 239.621 513.07 292.213 512.126C344.805 511.182 395.334 491.503 434.712 456.629C474.09 421.755 499.733 373.975 507.027 321.882C514.321 269.79 502.789 216.804 474.505 172.456C446.22 128.107 403.04 95.3058 352.73 79.9521C302.42 64.5984 248.283 67.6998 200.055 88.6984C151.828 109.697 112.676 147.215 89.641 194.503" stroke="#36A23F" stroke-width="20"/>
            </g>
        </g>
    </g>
</svg>