<svg width="603" height="603" viewBox="0 0 603 603" fill="none" xmlns="http://www.w3.org/2000/svg">
<circle cx="301.175" cy="301.175" r="286.175" stroke="#36A23F" stroke-width="30"/>
<path d="M232.495 431.794C263.596 448.147 299.511 452.867 333.781 445.103C368.05 437.34 398.425 417.603 419.442 389.443C440.459 361.284 450.739 326.549 448.432 291.487C446.125 256.425 431.383 223.336 406.858 198.173C382.332 173.01 349.633 157.423 314.642 154.217C279.651 151.01 244.663 160.394 215.973 180.681C187.283 200.968 166.773 230.826 158.132 264.885C149.492 298.944 153.287 334.969 168.836 366.479" stroke="#36A23F" stroke-width="30"/>
<path d="M75.7834 340.588C85.1507 393.557 113.111 441.446 154.634 475.64C196.158 509.835 248.52 528.091 302.303 527.125C356.085 526.159 407.758 506.035 448.027 470.372C488.296 434.709 514.519 385.847 521.979 332.576C529.438 279.304 517.645 225.119 488.72 179.767C459.796 134.415 415.638 100.871 364.189 85.1699C312.741 69.4687 257.378 72.6402 208.059 94.1141C158.74 115.588 118.702 153.955 95.1459 202.314" stroke="#36A23F" stroke-width="30"/>
</svg>
